# xmcd
#
# Track frame offsets:
#	210
#	15007
#	24090
#	33520
#	47067
#	59725
#	73507
#	82637
#	94932
#
# Disc length: 1417
#
# Revision: 2
# Processed by: cddbd v1.5.1PL0 Copyright (c) Steve Scherf et al.
# Submitted via: EasyCDDAExtractor 5.1.0
# Normalized: r1:DSETVAR1
#
DISCID=5f058709
DTITLE=Various Artist - Branson USA (Volume 1) Pickers and Fiddlers
DYEAR=1993
DGENRE=Country
TTITLE0=Eric Weissberg and Steve Mandell - Dueling Banjos
TTITLE1=Hank Williams Jr - Jambalaya
TTITLE2=Lester Flatt and Earl Scruggs - The Ballad Of Jed Clampett
TTITLE3=Merle Travis - So Round, So Firm, So Fully Packed
TTITLE4=Red Foley - Chattanoogie Shoe Shine Boy
TTITLE5=Johnny Paycheck - I'm The Only Hell (Mama Ever Raised)
TTITLE6=Buck Owens - Buckaroo
TTITLE7=Earl Scruggs Revue - Blue Moon Of Kentucky
TTITLE8=Bill Monroe and The Bluegrass Boys - Dancin' In Brancin'
EXTD=
EXTT0=
EXTT1=
EXTT2=
EXTT3=
EXTT4=
EXTT5=
EXTT6=
EXTT7=
EXTT8=
PLAYORDER=
